<?xml version="1.0" encoding="utf-8"?>
<!-- Generator: Adobe Illustrator 15.1.0, SVG Export Plug-In . SVG Version: 6.00 Build 0)  -->
<!DOCTYPE svg PUBLIC "-//W3C//DTD SVG 1.1//EN" "http://www.w3.org/Graphics/SVG/1.1/DTD/svg11.dtd">
<svg version="1.1" id="レイヤー_1" xmlns="http://www.w3.org/2000/svg" xmlns:xlink="http://www.w3.org/1999/xlink" x="0px"
	 y="0px" width="150px" height="27px" viewBox="0 0 150 27" enable-background="new 0 0 150 27" xml:space="preserve">
<g>
</g>
<g>
</g>
<g>
</g>
<g>
	<path fill="#FFFFFF" d="M3.117,8.212C3.174,10.354,3,12.206,2.596,13.769l-1.389-0.955c0.404-1.678,0.578-3.473,0.521-5.383
		l1.389,0.26C3.579,7.75,3.579,7.923,3.117,8.212z M7.023,6.302l0.695,1.302c0.23,0.464,0.144,0.608-0.261,0.434L5.461,9.602v6.338
		c0.751,0.521,1.389,1.245,1.91,2.171l-0.955,1.563c-0.521-0.868-0.985-1.505-1.389-1.91c-0.347,1.969-1.187,3.616-2.518,4.949
		l-1.128-1.39c1.736-1.793,2.604-3.964,2.604-6.512V2.917h1.389c0.462,0.058,0.491,0.232,0.087,0.521v4.428L7.023,6.302z
		 M20.047,16.547c-1.795-1.445-3.097-3.067-3.907-4.862c-0.694,2.375-1.997,4.167-3.907,5.383l-1.042-1.39
		c2.373-1.793,3.646-4.022,3.82-6.685h-2.17c-0.521,3.242-2.171,5.847-4.949,7.814l-0.955-1.216c1.563-1.099,2.604-2.17,3.125-3.212
		l-1.65-1.476c-0.173,0.406-0.521,0.927-1.042,1.563l-1.042-1.129c1.389-1.62,2.228-4.428,2.518-8.421L10.41,3.09
		c0.404,0.117,0.347,0.261-0.174,0.434l-0.173,1.389h3.299c0,0.985-0.086,1.882-0.26,2.691h1.91V2.917h1.649
		c0.463,0.058,0.491,0.232,0.087,0.521v4.167h3.733v1.389h-3.733c0.404,2.257,1.823,4.254,4.254,5.991L20.047,16.547z M9.542,18.11
		c-0.291,1.621-0.868,3.067-1.736,4.341l-1.476-0.955c0.81-1.157,1.417-2.488,1.823-3.994L9.542,18.11z M10.67,11.251
		c0.174-0.289,0.348-0.781,0.521-1.476L9.281,8.56L8.847,9.862L10.67,11.251z M9.889,6.302l-0.26,1.216l1.91,1.042
		c0.116-0.521,0.231-1.272,0.348-2.257H9.889z M11.018,22.017c0.115-1.332,0.057-2.72-0.174-4.167l1.476-0.087
		c0.462,1.273,0.636,2.635,0.521,4.081L11.018,22.017z M15.445,17.676c0.578,1.101,1.042,2.345,1.389,3.733l-1.823,0.348
		c-0.232-1.446-0.579-2.721-1.042-3.82L15.445,17.676z M19.179,21.844c-0.58-1.505-1.333-2.836-2.257-3.994l1.389-0.607
		c1.042,1.041,1.91,2.315,2.604,3.819L19.179,21.844z M20.047,5.781l-1.302,0.868c-0.174-0.521-0.666-1.157-1.476-1.91l1.128-0.782
		C18.918,4.306,19.467,4.913,20.047,5.781z"/>
	<path fill="#FFFFFF" d="M27.687,4.306h1.823C30.088,4.422,30.146,4.653,29.684,5c0,0.927,0.174,2.257,0.521,3.994l4.341-1.563
		l0.173-3.994h1.65c0.636,0.116,0.694,0.347,0.173,0.694l-0.26,2.952c0.521-0.116,1.042-0.174,1.563-0.174
		c1.678,0,2.952,0.434,3.82,1.302c0.925,0.927,1.389,2.114,1.389,3.56c0,1.389-0.347,2.431-1.042,3.125
		c-0.868,0.868-1.997,1.303-3.386,1.303c-1.853,0-3.329-0.491-4.428-1.477l0.781-1.649c1.272,0.868,2.431,1.303,3.473,1.303
		c0.925,0,1.678-0.289,2.257-0.869c0.347-0.347,0.521-0.925,0.521-1.736c0-0.925-0.29-1.678-0.868-2.257
		c-0.638-0.636-1.476-0.955-2.518-0.955c-1.159,0-2.316,0.232-3.473,0.695l-3.733,1.476c0.984,3.763,2.228,7.178,3.733,10.245
		l-1.997,0.781c-1.333-3.126-2.49-6.569-3.473-10.332l-4.167,1.736l-0.955-1.736l4.688-1.823
		C28.178,8.329,27.917,6.563,27.687,4.306z"/>
	<path fill="#FFFFFF" d="M60.158,14.116c0,1.621-0.781,2.431-2.344,2.431h-2.865l-0.347-1.91h2.952c0.578,0,0.868-0.288,0.868-0.868
		v-2.778l-6.512,0.434v6.338c0,1.042,0.55,1.563,1.65,1.563h8.508l-0.347,1.91h-8.248c-2.2,0-3.299-1.099-3.299-3.299v-6.338
		l-4.341,0.347l-0.261-1.823l4.602-0.261V5.434h1.563c0.578,0.117,0.636,0.347,0.173,0.695v3.646l6.512-0.434V4.219h1.563
		c0.578,0.117,0.636,0.347,0.173,0.694v4.341l4.688-0.261l0.174,1.823l-4.862,0.087V14.116z"/>
	<path fill="#FFFFFF" d="M67.972,8.82l-0.26-1.823c1.446,0,2.894-0.057,4.341-0.174c0.289-1.042,0.636-2.431,1.042-4.167
		l1.563,0.521c0.578,0.232,0.578,0.464,0,0.695l-0.781,2.778c0.983-0.115,1.997-0.317,3.039-0.607l0.435,1.823
		c-1.622,0.347-2.952,0.551-3.994,0.607c-0.926,2.952-2.287,6.164-4.081,9.638l-1.736-0.868c1.793-3.183,3.096-6.048,3.907-8.596
		C70.518,8.763,69.361,8.82,67.972,8.82z M80.734,10.73c0.636,0.116,0.694,0.347,0.174,0.694v5.035
		c1.446,0.465,2.952,1.101,4.515,1.91l-1.042,1.65c-1.273-0.752-2.431-1.303-3.473-1.65c-0.174,1.216-0.551,2.114-1.129,2.691
		c-0.694,0.695-1.649,1.042-2.865,1.042c-1.621,0-2.75-0.318-3.386-0.955c-0.58-0.579-0.868-1.33-0.868-2.257
		c0-0.752,0.289-1.418,0.868-1.997c0.751-0.752,1.852-1.129,3.299-1.129c0.983,0,1.766,0.087,2.345,0.261V10.73H80.734z
		 M76.827,17.329c-0.926,0-1.563,0.173-1.91,0.521c-0.291,0.29-0.434,0.638-0.434,1.042c0,0.405,0.115,0.725,0.347,0.955
		c0.347,0.347,0.955,0.521,1.823,0.521c0.811,0,1.39-0.174,1.737-0.521c0.521-0.521,0.781-1.244,0.781-2.171
		C78.477,17.445,77.695,17.329,76.827,17.329z M79.779,6.042c1.62,0.521,3.56,1.215,5.817,2.083l-0.781,1.823
		c-2.432-1.042-4.342-1.765-5.73-2.17L79.779,6.042z"/>
	<path fill="#FFFFFF" d="M94.713,19.238c-0.812,0.985-1.621,1.477-2.431,1.477c-1.447,0-2.518-0.839-3.213-2.518
		c-0.405-0.984-0.607-3.096-0.607-6.338c0-2.314,0.115-4.659,0.348-7.033l1.823,0.435c0.694,0.173,0.723,0.464,0.087,0.868
		c-0.232,2.142-0.348,4.081-0.348,5.817c0,2.374,0.144,4.052,0.434,5.036c0.289,0.984,0.724,1.476,1.303,1.476
		c0.637,0,1.186-0.462,1.649-1.389c0.289-0.578,0.578-1.272,0.868-2.084l1.736,1.216C95.842,17.532,95.291,18.544,94.713,19.238z
		 M106.26,15.939l-2.344,0.607c-0.694-4.05-2.113-7.206-4.254-9.463l1.823-1.042C104.09,8.763,105.681,12.063,106.26,15.939z"/>
	<path fill="#FFFFFF" d="M123.798,18.631v1.91h-9.55c-1.795,0-3.039-0.348-3.733-1.042s-1.042-1.619-1.042-2.778
		c0-0.636,0.115-1.389,0.348-2.257l1.996,0.26c-0.29,0.927-0.434,1.593-0.434,1.997c0,0.521,0.174,0.955,0.521,1.303
		c0.404,0.405,1.216,0.607,2.432,0.607H123.798z M110.775,7.778v-1.91h11.286v1.91H110.775z M122.496,4.045
		c0.983,0.521,2.083,1.246,3.299,2.17l-0.781,1.216c-1.273-0.925-2.374-1.65-3.299-2.17L122.496,4.045z M123.711,2.048
		c0.984,0.521,2.084,1.245,3.3,2.17l-0.781,1.215c-1.274-0.925-2.374-1.649-3.3-2.17L123.711,2.048z"/>
	<path fill="#FFFFFF" d="M141.162,21.757l-1.823-1.042c1.793-1.679,2.98-3.762,3.56-6.251c-2.026-0.752-4.08-1.273-6.164-1.563
		c-1.563,3.357-2.604,5.296-3.126,5.817c-0.694,0.694-1.506,1.042-2.431,1.042c-0.694,0-1.273-0.23-1.736-0.694
		c-0.521-0.521-0.781-1.303-0.781-2.345c0-1.215,0.578-2.401,1.736-3.56c1.272-1.272,2.98-1.91,5.122-1.91
		c0.694-1.793,1.331-3.473,1.91-5.036c-1.621,0.406-3.242,0.782-4.862,1.129l-0.781-1.736c1.91-0.231,3.733-0.549,5.47-0.955
		l1.042-0.434l1.477,1.128c0.577,0.348,0.549,0.608-0.087,0.782c-0.753,1.332-1.563,3.068-2.432,5.209
		c1.853,0.232,3.82,0.695,5.904,1.389c0.115-1.389,0.144-3.096,0.087-5.123l1.649,0.348c0.636,0.117,0.694,0.347,0.174,0.694
		c0,1.91-0.059,3.473-0.174,4.688c1.099,0.406,2.373,0.984,3.82,1.736l-0.868,1.736c-1.216-0.694-2.316-1.272-3.3-1.736
		C143.969,17.676,142.84,19.904,141.162,21.757z M131.698,14.116c-0.926,0.927-1.389,1.795-1.389,2.604
		c0,0.348,0.115,0.638,0.348,0.868c0.173,0.174,0.434,0.261,0.781,0.261c0.521,0,0.983-0.317,1.389-0.955
		c0.348-0.521,1.042-1.852,2.084-3.994C133.579,12.901,132.509,13.306,131.698,14.116z"/>
</g>
</svg>
