<?xml version="1.0" encoding="utf-8"?>
<!-- Generator: Adobe Illustrator 15.1.0, SVG Export Plug-In . SVG Version: 6.00 Build 0)  -->
<!DOCTYPE svg PUBLIC "-//W3C//DTD SVG 1.1//EN" "http://www.w3.org/Graphics/SVG/1.1/DTD/svg11.dtd">
<svg version="1.1" id="レイヤー_1" xmlns="http://www.w3.org/2000/svg" xmlns:xlink="http://www.w3.org/1999/xlink" x="0px"
	 y="0px" width="150px" height="27px" viewBox="0 0 150 27" enable-background="new 0 0 150 27" xml:space="preserve">
<g>
</g>
<g>
</g>
<g>
</g>
<g>
	<path fill="#FFFFFF" d="M3.603,9.431c0.063,2.402-0.131,4.479-0.584,6.231L1.46,14.591c0.453-1.882,0.648-3.895,0.584-6.036
		l1.558,0.292C4.121,8.912,4.121,9.107,3.603,9.431z M7.983,7.289l0.779,1.46C9.021,9.27,8.924,9.431,8.47,9.236l-2.239,1.753v7.107
		c0.843,0.584,1.558,1.396,2.142,2.435l-1.071,1.752c-0.584-0.974-1.104-1.688-1.558-2.142c-0.389,2.207-1.331,4.056-2.823,5.549
		l-1.266-1.558c1.947-2.011,2.92-4.444,2.92-7.302V3.492h1.558c0.519,0.065,0.551,0.26,0.097,0.584v4.965L7.983,7.289z
		 M22.587,18.777c-2.013-1.622-3.473-3.439-4.381-5.452c-0.779,2.662-2.239,4.673-4.381,6.036l-1.168-1.558
		c2.661-2.011,4.089-4.51,4.284-7.497h-2.434c-0.584,3.636-2.434,6.556-5.55,8.762l-1.071-1.363
		c1.752-1.231,2.921-2.434,3.505-3.602l-1.85-1.656c-0.194,0.455-0.584,1.039-1.168,1.752l-1.168-1.266
		c1.558-1.816,2.498-4.965,2.823-9.444l1.753,0.195c0.453,0.131,0.389,0.292-0.195,0.487l-0.195,1.558h3.7
		c0,1.104-0.098,2.11-0.292,3.018h2.142V3.492h1.85c0.519,0.065,0.551,0.26,0.097,0.584v4.673h4.187v1.558h-4.187
		c0.454,2.531,2.044,4.771,4.771,6.717L22.587,18.777z M10.807,20.53c-0.326,1.817-0.974,3.439-1.947,4.867l-1.655-1.07
		c0.908-1.298,1.59-2.79,2.044-4.479L10.807,20.53z M12.073,12.838c0.194-0.324,0.389-0.876,0.584-1.655L10.515,9.82l-0.487,1.46
		L12.073,12.838z M11.196,7.289l-0.292,1.363l2.142,1.168c0.129-0.584,0.258-1.427,0.389-2.531H11.196z M12.462,24.911
		c0.129-1.494,0.064-3.05-0.195-4.674l1.655-0.097c0.519,1.428,0.713,2.954,0.584,4.575L12.462,24.911z M17.427,20.043
		c0.648,1.233,1.168,2.629,1.558,4.187l-2.045,0.39c-0.26-1.622-0.649-3.051-1.168-4.284L17.427,20.043z M21.614,24.716
		c-0.649-1.687-1.494-3.179-2.531-4.479l1.558-0.681c1.168,1.168,2.142,2.597,2.921,4.283L21.614,24.716z M22.587,6.705l-1.46,0.974
		c-0.195-0.584-0.747-1.297-1.655-2.142l1.266-0.876C21.322,5.05,21.938,5.731,22.587,6.705z"/>
	<path fill="#FFFFFF" d="M31.155,5.05H33.2c0.648,0.131,0.714,0.389,0.195,0.779c0,1.039,0.195,2.531,0.584,4.479l4.868-1.752
		l0.195-4.479h1.85c0.714,0.131,0.779,0.389,0.195,0.779l-0.292,3.31c0.584-0.129,1.168-0.195,1.752-0.195
		c1.882,0,3.31,0.487,4.284,1.46c1.038,1.039,1.558,2.37,1.558,3.992c0,1.558-0.39,2.726-1.168,3.505
		c-0.974,0.974-2.239,1.46-3.797,1.46c-2.078,0-3.733-0.551-4.965-1.655l0.876-1.85c1.427,0.974,2.726,1.461,3.895,1.461
		c1.038,0,1.882-0.324,2.531-0.974c0.39-0.39,0.584-1.038,0.584-1.948c0-1.037-0.325-1.882-0.974-2.531
		c-0.715-0.713-1.655-1.071-2.823-1.071c-1.299,0-2.597,0.26-3.895,0.779l-4.187,1.655c1.103,4.22,2.498,8.048,4.187,11.488
		l-2.239,0.877c-1.494-3.505-2.792-7.366-3.894-11.586l-4.673,1.947l-1.071-1.947l5.258-2.044
		C31.706,9.562,31.414,7.581,31.155,5.05z"/>
	<path fill="#FFFFFF" d="M67.568,16.051c0,1.818-0.876,2.727-2.628,2.727h-3.213l-0.39-2.142h3.311c0.648,0,0.974-0.324,0.974-0.974
		v-3.116l-7.302,0.487v7.107c0,1.168,0.616,1.752,1.85,1.752h9.541l-0.389,2.143h-9.25c-2.467,0-3.7-1.232-3.7-3.7v-7.107
		l-4.868,0.389l-0.292-2.044l5.16-0.292V6.315h1.752c0.648,0.131,0.714,0.389,0.195,0.779v4.089l7.302-0.487V4.952h1.752
		c0.648,0.131,0.713,0.39,0.194,0.779v4.868l5.258-0.292l0.194,2.044l-5.452,0.097V16.051z"/>
	<path fill="#FFFFFF" d="M93.076,21.503c0.779-0.778,1.169-1.815,1.169-3.115c0-1.427-0.423-2.563-1.266-3.407
		c-0.845-0.843-2.176-1.266-3.992-1.266c-2.142,0-3.797,0.423-4.965,1.266c-1.104,0.778-2.531,2.175-4.284,4.187l-1.655-1.461
		c4.674-4.673,8.21-8.567,10.612-11.683c-2.142,0.26-4.284,0.487-6.426,0.682l-0.682-2.239c3.18,0,6.003-0.161,8.471-0.487
		l0.876-0.389l1.071,1.071c0.713,0.649,0.551,1.071-0.487,1.266c-1.947,2.208-3.895,4.381-5.842,6.523
		c1.363-0.324,2.498-0.487,3.408-0.487c2.466,0,4.284,0.584,5.452,1.753c1.168,1.168,1.752,2.662,1.752,4.479
		c0,1.883-0.52,3.344-1.558,4.381c-1.558,1.558-3.538,2.337-5.938,2.337c-2.273,0-3.928-0.521-4.966-1.558
		c-0.844-0.843-1.266-1.851-1.266-3.019c0-0.778,0.292-1.46,0.876-2.045c0.648-0.647,1.396-0.973,2.239-0.973
		c1.169,0,2.143,0.389,2.921,1.168c0.908,0.909,1.524,2.337,1.851,4.284C91.485,22.64,92.361,22.219,93.076,21.503z M87.332,19.653
		c-0.454-0.453-0.909-0.682-1.362-0.682c-0.521,0-0.91,0.131-1.169,0.39c-0.325,0.326-0.486,0.682-0.486,1.071
		c0,0.584,0.259,1.136,0.778,1.655c0.648,0.649,1.492,0.974,2.531,0.974c0.259,0,0.551,0,0.877,0
		C88.306,21.374,87.917,20.237,87.332,19.653z"/>
	<path fill="#FFFFFF" d="M120.435,21.114v2.142h-10.709c-2.013,0-3.408-0.39-4.187-1.168c-0.779-0.779-1.169-1.816-1.169-3.116
		c0-0.713,0.13-1.558,0.39-2.531l2.239,0.292c-0.325,1.039-0.486,1.786-0.486,2.239c0,0.585,0.194,1.071,0.584,1.461
		c0.453,0.455,1.363,0.682,2.726,0.682H120.435z M105.831,8.944V6.802h12.656v2.142H105.831z M118.975,4.757
		c1.103,0.584,2.337,1.396,3.699,2.434l-0.876,1.363c-1.429-1.038-2.662-1.85-3.699-2.434L118.975,4.757z M120.338,2.518
		c1.103,0.584,2.336,1.396,3.699,2.434l-0.876,1.363c-1.429-1.038-2.662-1.85-3.7-2.434L120.338,2.518z"/>
	<path fill="#FFFFFF" d="M139.906,24.619l-2.044-1.169c2.011-1.882,3.342-4.218,3.991-7.01c-2.272-0.843-4.575-1.427-6.912-1.752
		c-1.753,3.765-2.921,5.938-3.505,6.522c-0.779,0.779-1.688,1.169-2.727,1.169c-0.778,0-1.428-0.259-1.947-0.779
		c-0.584-0.584-0.876-1.46-0.876-2.629c0-1.362,0.648-2.692,1.947-3.991c1.427-1.427,3.342-2.142,5.744-2.142
		c0.779-2.011,1.492-3.895,2.142-5.647c-1.817,0.455-3.636,0.876-5.452,1.266l-0.876-1.947c2.142-0.258,4.187-0.616,6.134-1.071
		l1.168-0.487l1.655,1.266c0.648,0.39,0.616,0.682-0.098,0.876c-0.844,1.494-1.752,3.441-2.726,5.841
		c2.076,0.26,4.284,0.779,6.62,1.558c0.13-1.558,0.161-3.471,0.098-5.744l1.85,0.39c0.714,0.131,0.779,0.39,0.195,0.779
		c0,2.142-0.065,3.895-0.195,5.257c1.232,0.455,2.661,1.104,4.284,1.947l-0.974,1.947c-1.363-0.779-2.597-1.427-3.7-1.947
		C143.054,20.043,141.788,22.542,139.906,24.619z M129.294,16.051c-1.039,1.039-1.558,2.013-1.558,2.921
		c0,0.39,0.13,0.716,0.39,0.974c0.194,0.195,0.487,0.292,0.876,0.292c0.585,0,1.104-0.355,1.558-1.07
		c0.39-0.584,1.169-2.077,2.337-4.479C131.402,14.688,130.202,15.143,129.294,16.051z"/>
</g>
</svg>
