<?xml version="1.0" encoding="utf-8"?>
<!-- Generator: Adobe Illustrator 15.1.0, SVG Export Plug-In . SVG Version: 6.00 Build 0)  -->
<!DOCTYPE svg PUBLIC "-//W3C//DTD SVG 1.1//EN" "http://www.w3.org/Graphics/SVG/1.1/DTD/svg11.dtd">
<svg version="1.1" id="レイヤー_1" xmlns="http://www.w3.org/2000/svg" xmlns:xlink="http://www.w3.org/1999/xlink" x="0px"
	 y="0px" width="150px" height="27px" viewBox="0 0 150 27" enable-background="new 0 0 150 27" xml:space="preserve">
<g>
</g>
<g>
</g>
<g>
</g>
<g>
	<path fill="#FFFFFF" d="M36.469,11.144l-1.141-1.763c2.074-0.76,3.941-1.66,5.601-2.697l1.037,1.556
		c-1.66,1.107-3.251,2.04-4.771,2.8C37.056,11.732,36.814,11.766,36.469,11.144z M35.743,23.278
		c2.972-0.415,5.427-1.209,7.364-2.386l1.556,1.452c0.275,0.484,0.068,0.622-0.622,0.415c-2.214,1.105-4.737,1.935-7.571,2.489
		L35.743,23.278z M38.128,1.913c1.037,0.485,2.178,1.073,3.422,1.763l-1.348,1.763c-0.899-0.553-2.041-1.141-3.422-1.763
		L38.128,1.913z M43.625,11.144H54.1v9.646H39.373v-9.646h3.733l-1.037-1.763c3.802-0.553,5.772-2.075,5.912-4.563h-1.763
		c-0.762,1.176-1.591,2.11-2.489,2.8l-1.452-1.141c1.59-1.452,2.868-3.249,3.837-5.393l1.763,0.623
		c0.275,0.277,0.171,0.45-0.312,0.519l-0.415,0.933h8.297l0.311-0.311l1.66,1.141L56.9,4.402c-0.485,0.83-1.348,1.867-2.593,3.111
		l-1.556-1.037c0.552-0.483,1.071-1.037,1.556-1.659h-4.356c1.175,2.282,3.975,3.837,8.4,4.667l-0.83,1.971
		c-3.803-0.69-6.466-2.143-7.986-4.356C48.775,9.036,46.805,10.384,43.625,11.144z M52.026,13.944v-1.556H41.447v1.556H52.026z
		 M52.026,16.744v-1.556H41.447v1.556H52.026z M52.026,19.545v-1.556H41.447v1.556H52.026z M56.796,25.041
		c-3.181-0.484-5.843-1.384-7.986-2.696l1.556-1.452c2.212,1.107,4.563,1.799,7.053,2.074L56.796,25.041z"/>
	<path fill="#FFFFFF" d="M66.753,16.744c-0.762,2.421-1.833,4.875-3.215,7.363c0.068,0.761-0.069,0.968-0.415,0.623l-1.971-1.867
		c1.452-2.212,2.73-4.735,3.837-7.571L66.753,16.744z M63.227,8.136c1.452,0.692,2.697,1.591,3.734,2.696l-1.556,2.178
		c-1.037-1.175-2.214-2.108-3.526-2.8L63.227,8.136z M66.13,6.995c-1.037-1.105-2.144-2.004-3.319-2.696l1.245-2.074
		c1.382,0.622,2.523,1.487,3.423,2.593L66.13,6.995z M76.916,17.056h-2.281h-2.281V7.203h3.63l0.207-2.696h-5.808v12.031
		c0,3.25-0.969,6.119-2.904,8.607l-1.66-1.866c1.66-2.074,2.489-4.563,2.489-7.468V2.536h16.387v1.971H78.68l-0.727,2.696h5.187
		v9.853H78.99v6.326c0,1.105-0.554,1.659-1.659,1.659h-1.866L75.05,23.07h1.348c0.346,0,0.519-0.207,0.519-0.622V17.056z
		 M72.25,24.212l-1.763-1.452c1.175-1.452,2.074-3.076,2.697-4.875l2.074,1.037c0.275,0.277,0.172,0.451-0.311,0.519
		C74.392,21.032,73.494,22.622,72.25,24.212z M74.116,9.173v2.074h7.26V9.173H74.116z M74.116,12.907v2.178h7.26v-2.178H74.116z
		 M83.762,23.797c-1.521-1.59-2.801-3.249-3.838-4.979l1.867-1.141c1.313,2.006,2.489,3.423,3.526,4.252L83.762,23.797z"/>
	<path fill="#FFFFFF" d="M91.021,6.581h1.659v-5.29h1.971c0.553,0.07,0.587,0.277,0.104,0.622v4.667h2.904v1.97h-2.904v5.704
		l2.696-1.037l0.519,1.764l-3.215,1.348v8.92h-2.074v-8.193l-3.215,1.037c-0.07,0.484-0.243,0.588-0.519,0.311l-0.727-2.281
		l4.46-1.245V8.551h-1.763c-0.14,1.314-0.415,2.593-0.83,3.837l-1.971-0.726c0.83-2.419,1.244-5.082,1.244-7.986l2.075,0.312
		c0.207,0.207,0.138,0.415-0.208,0.622L91.021,6.581z M111.245,6.373l-0.104,12.757c0,3.665-1.037,5.496-3.111,5.496h-3.008
		l-0.415-2.281h2.593c1.245,0.14,1.867-0.934,1.867-3.215l0.104-10.786h-1.141c0.068,6.085-2.939,11.686-9.022,16.801l-1.349-1.866
		c5.116-3.802,7.916-8.78,8.4-14.935H104.4c-0.277,4.218-2.386,7.951-6.326,11.201l-1.452-1.764
		c3.456-2.696,5.393-5.842,5.808-9.438h-1.659c-0.762,1.867-1.729,3.458-2.904,4.771l-1.763-1.245
		c2.419-2.972,3.905-6.395,4.46-10.268l2.178,0.415c0.275,0.277,0.172,0.451-0.312,0.519c-0.207,1.176-0.519,2.455-0.934,3.837
		H111.245z"/>
</g>
</svg>
