<?xml version="1.0" encoding="utf-8"?>
<!-- Generator: Adobe Illustrator 15.1.0, SVG Export Plug-In . SVG Version: 6.00 Build 0)  -->
<!DOCTYPE svg PUBLIC "-//W3C//DTD SVG 1.1//EN" "http://www.w3.org/Graphics/SVG/1.1/DTD/svg11.dtd">
<svg version="1.1" id="レイヤー_1" xmlns="http://www.w3.org/2000/svg" xmlns:xlink="http://www.w3.org/1999/xlink" x="0px"
	 y="0px" width="150px" height="27px" viewBox="0 0 150 27" enable-background="new 0 0 150 27" xml:space="preserve">
<g>
</g>
<g>
</g>
<g>
</g>
<g>
	<path fill="#FFFFFF" d="M36.538,11.214c0.772,0.728,2.8,2.932,3.286,3.505l-0.926,1.213c-0.441-0.705-1.5-2.073-2.359-3.109v8.467
		h-1.411v-8.82c-0.86,2.249-2.006,4.52-3.131,5.887c-0.154-0.441-0.529-1.059-0.771-1.411c1.345-1.565,2.822-4.476,3.638-7.012
		h-3.351V8.546h3.616V0.829l1.852,0.132c-0.022,0.154-0.154,0.243-0.441,0.287v7.298h3.286v1.389h-3.286V11.214z M32.745,2.417
		c0.684,1.5,1.213,3.462,1.323,4.719l-1.213,0.331c-0.088-1.279-0.595-3.263-1.234-4.763L32.745,2.417z M40.375,2.748
		c-0.044,0.132-0.199,0.22-0.463,0.22c-0.397,1.345-1.146,3.396-1.742,4.63c-0.243-0.088-0.816-0.309-1.036-0.375
		c0.573-1.301,1.256-3.483,1.609-4.983L40.375,2.748z M50.23,19.218h1.61v1.411H38.721v-1.411h2.381V1.888h9.128V19.218z
		 M48.753,3.299h-6.218v4.366h6.218V3.299z M48.753,13.397V9.031h-6.218v4.366H48.753z M42.535,14.764v4.454h6.218v-4.454H42.535z"
		/>
	<path fill="#FFFFFF" d="M73.486,8.833h-8.621c1.433,5.27,4.277,9.326,8.974,11.068c-0.375,0.331-0.86,0.948-1.102,1.39
		c-4.608-1.896-7.409-5.799-9.04-11.113c-1.015,4.366-3.418,8.688-9.106,11.135c-0.22-0.396-0.684-0.926-1.058-1.257
		c5.821-2.359,8.003-6.769,8.841-11.223h-8.511V7.312h8.753c0.287-2.293,0.265-4.542,0.287-6.46l2.073,0.11
		C64.953,1.16,64.777,1.27,64.49,1.336c-0.022,1.742-0.044,3.814-0.309,5.975h9.305V8.833z"/>
	<path fill="#FFFFFF" d="M92.928,19.086c-1.94,0.353-4.52,0.507-6.769,0.507c-1.809,0-3.396-0.11-4.256-0.286
		c-2.668-0.596-3.814-2.271-3.814-4.212c0-1.653,0.926-3.374,2.249-4.696l1.278,0.662c-1.234,1.257-1.939,2.69-1.939,3.903
		c0,1.301,0.859,2.447,2.756,2.888c0.749,0.154,2.028,0.243,3.527,0.243c2.139,0,4.741-0.177,6.857-0.596L92.928,19.086z
		 M83.027,7.973c1.147-0.904,2.713-1.962,3.903-2.558V5.393c-1.676,0.199-5.513,0.265-7.96,0.265c0-0.419,0-1.146-0.022-1.543h1.191
		c2.822,0,8.599-0.044,11.377-0.706l0.177,1.61c-0.728,0.11-1.257,0.22-2.315,0.661c-1.234,0.507-3.374,1.698-5.094,3.087
		L83.027,7.973z M92.905,11.104c-0.639-0.97-2.006-2.293-2.954-2.999l0.728-0.684c1.059,0.771,2.337,2.05,3.021,2.977L92.905,11.104
		z M95.221,9.009c-0.617-0.882-1.918-2.205-2.954-2.977l0.728-0.706c1.08,0.816,2.359,2.073,3.021,2.999L95.221,9.009z"/>
	<path fill="#FFFFFF" d="M115.832,7.201c-0.066,0.243-0.309,0.397-0.64,0.397c-0.242,1.521-0.596,3.131-0.97,4.498
		c1.19,0.507,2.447,1.081,3.704,1.72l-0.706,1.477c-1.19-0.595-2.337-1.168-3.462-1.653c-1.058,3.175-2.579,5.49-4.916,7.033
		c-0.31-0.309-0.86-0.684-1.257-0.926c2.314-1.521,3.748-3.594,4.762-6.747c-2.227-0.882-4.255-1.499-5.887-1.631
		c-1.521,5.556-2.889,7.011-5.534,7.011s-3.153-2.116-3.153-3.462c0-3.417,3.55-5.005,7.497-5.027
		c0.463-1.764,0.882-3.924,1.19-6.218c-1.036,0.088-4.564,0.331-6.24,0.441c-0.088,0.154-0.264,0.265-0.463,0.309L99.56,2.637
		c1.896-0.066,5.997-0.331,7.32-0.463c0.242-0.022,0.331-0.132,0.485-0.243l1.367,0.816c-0.11,0.176-0.287,0.265-0.552,0.353
		c-0.353,2.448-0.882,4.983-1.367,6.879c1.698,0.132,3.727,0.728,5.932,1.565c0.375-1.323,0.705-3.021,0.948-4.807L115.832,7.201z
		 M104.918,11.28c-3.176,0.044-5.711,1.301-5.711,3.638c0,1.235,0.596,2.073,1.632,2.073
		C102.448,16.991,103.507,16.439,104.918,11.28z"/>
</g>
</svg>
