<?xml version="1.0" encoding="utf-8"?>
<!-- Generator: Adobe Illustrator 15.1.0, SVG Export Plug-In . SVG Version: 6.00 Build 0)  -->
<!DOCTYPE svg PUBLIC "-//W3C//DTD SVG 1.1//EN" "http://www.w3.org/Graphics/SVG/1.1/DTD/svg11.dtd">
<svg version="1.1" id="レイヤー_1" xmlns="http://www.w3.org/2000/svg" xmlns:xlink="http://www.w3.org/1999/xlink" x="0px"
	 y="0px" width="150px" height="27px" viewBox="0 0 150 27" enable-background="new 0 0 150 27" xml:space="preserve">
<g>
</g>
<g>
</g>
<g>
</g>
<g>
</g>
<g>
	<path fill="#FFFFFF" d="M33.069,19.718c-1.235-1.577-2.231-2.606-2.985-3.088v8.441h-2.059v-8.029
		c-1.305,2.059-2.609,3.741-3.912,5.044l-1.029-2.368c2.401-2.332,4.048-4.563,4.941-6.69H24.01v-1.956h4.015v-9.47h1.956
		c0.548,0.069,0.583,0.275,0.103,0.618v8.853h4.323v1.956h-4.323v1.441c1.714,0.823,3.122,1.922,4.22,3.294L33.069,19.718z
		 M25.76,3.867c0.548,1.167,0.96,2.917,1.235,5.25l-1.853,0.412c-0.206-2.195-0.618-3.911-1.235-5.146L25.76,3.867z M34.098,3.97
		c0.479,0.138,0.445,0.309-0.103,0.515c-0.275,1.579-0.653,3.294-1.132,5.146l-1.75-0.618c0.618-1.92,0.994-3.739,1.132-5.456
		L34.098,3.97z M44.803,3.558v18.837h2.059v1.956H33.069v-1.956h2.47V3.558H44.803z M37.598,5.514v4.014h5.147V5.514H37.598z
		 M42.745,11.484h-5.147v4.014h5.147V11.484z M42.745,17.453h-5.147v4.941h5.147V17.453z"/>
	<path fill="#FFFFFF" d="M49.847,22.395c6.313-2.195,9.641-6.416,9.985-12.661h-9.264V7.469h9.47V2.014h2.265
		c0.686,0.138,0.721,0.412,0.103,0.824v4.632h9.882v2.265h-9.676c1.441,5.697,4.941,9.745,10.5,12.146l-1.338,2.471
		c-4.804-2.195-8.201-5.901-10.19-11.117c-1.168,5.627-4.771,9.504-10.809,11.631L49.847,22.395z"/>
	<path fill="#FFFFFF" d="M96.477,20.645v2.265H85.153c-2.128,0-3.603-0.412-4.426-1.235s-1.235-1.92-1.235-3.294
		c0-0.754,0.137-1.646,0.412-2.676l2.367,0.309c-0.344,1.099-0.515,1.888-0.515,2.367c0,0.618,0.206,1.133,0.617,1.544
		c0.479,0.481,1.441,0.721,2.883,0.721H96.477z M81.036,7.778V5.514h13.382v2.265H81.036z M94.933,3.352
		c1.166,0.618,2.471,1.476,3.911,2.573l-0.926,1.441c-1.511-1.097-2.814-1.956-3.912-2.573L94.933,3.352z M96.374,0.984
		c1.166,0.618,2.47,1.477,3.911,2.573l-0.927,1.441c-1.51-1.097-2.814-1.956-3.911-2.574L96.374,0.984z"/>
	<path fill="#FFFFFF" d="M117.063,24.351l-2.162-1.235c2.127-1.989,3.534-4.46,4.221-7.411c-2.403-0.892-4.838-1.509-7.309-1.853
		c-1.853,3.98-3.088,6.278-3.706,6.896c-0.823,0.824-1.785,1.235-2.882,1.235c-0.823,0-1.51-0.273-2.059-0.823
		c-0.618-0.617-0.927-1.544-0.927-2.779c0-1.441,0.686-2.847,2.059-4.221c1.509-1.508,3.534-2.264,6.073-2.264
		c0.824-2.126,1.578-4.117,2.265-5.97c-1.922,0.481-3.844,0.926-5.764,1.338l-0.927-2.059c2.265-0.273,4.426-0.651,6.484-1.132
		l1.235-0.515l1.75,1.338c0.686,0.412,0.651,0.721-0.103,0.926c-0.893,1.58-1.853,3.638-2.883,6.176
		c2.196,0.275,4.529,0.823,7,1.647c0.137-1.647,0.171-3.67,0.104-6.073l1.955,0.412c0.755,0.138,0.823,0.412,0.206,0.824
		c0,2.265-0.069,4.117-0.206,5.558c1.303,0.481,2.813,1.168,4.529,2.059l-1.029,2.06c-1.441-0.824-2.745-1.509-3.911-2.06
		C120.391,19.513,119.053,22.155,117.063,24.351z M105.843,15.292c-1.098,1.099-1.646,2.128-1.646,3.088
		c0,0.412,0.137,0.756,0.412,1.029c0.205,0.206,0.515,0.309,0.926,0.309c0.618,0,1.166-0.376,1.647-1.132
		c0.411-0.617,1.235-2.195,2.471-4.734C108.072,13.852,106.804,14.332,105.843,15.292z"/>
</g>
</svg>
