<?xml version="1.0" encoding="utf-8"?>
<!-- Generator: Adobe Illustrator 15.1.0, SVG Export Plug-In . SVG Version: 6.00 Build 0)  -->
<!DOCTYPE svg PUBLIC "-//W3C//DTD SVG 1.1//EN" "http://www.w3.org/Graphics/SVG/1.1/DTD/svg11.dtd">
<svg version="1.1" id="レイヤー_1" xmlns="http://www.w3.org/2000/svg" xmlns:xlink="http://www.w3.org/1999/xlink" x="0px"
	 y="0px" width="150px" height="27px" viewBox="0 0 150 27" enable-background="new 0 0 150 27" xml:space="preserve">
<g>
</g>
<g>
</g>
<g>
	<path d="M48.697,7.776H35.434c-0.462,0.815-0.974,1.611-1.533,2.387h11.755v10.092c0,1.65-0.974,1.689-5.33,1.689
		c-0.073-0.369-0.316-0.932-0.56-1.301c0.852,0.02,1.655,0.02,2.312,0.02c1.752,0,1.947,0,1.947-0.428v-2.212H33.73v3.921h-1.631
		v-9.608c-1.241,1.32-2.677,2.503-4.356,3.474c-0.243-0.291-0.754-0.776-1.095-1.048c3.018-1.689,5.33-4.251,6.912-6.987h-6.401
		V6.515h7.082c0.438-0.854,0.779-1.728,1.071-2.582l2.118,0.427c-0.049,0.136-0.244,0.213-0.536,0.213
		c-0.243,0.64-0.511,1.281-0.827,1.941h12.631V7.776z M44.024,13.521v-2.174H33.73v2.174H44.024z M33.73,16.879h10.294v-2.213H33.73
		V16.879z"/>
	<path d="M62.984,13.968h10.149v1.126H51.375v-1.126h9.979v-1.572h-7.496v-1.048h7.496V9.931h-6.645V8.844h6.645V7.349l2.117,0.117
		c-0.024,0.136-0.146,0.232-0.487,0.271v1.106h6.839v1.087h-6.839v1.417h7.813v1.048h-7.813V13.968z M53.687,7.136v2.193h-1.606
		V5.952h9.249V3.914l2.166,0.097c-0.024,0.136-0.17,0.233-0.487,0.271v1.669h9.467v3.377h-1.655V7.136H53.687z M54.879,21.983
		v-5.628h14.943v5.551h-1.655v-0.602H56.461v0.679H54.879z M68.168,17.441H56.461v2.757h11.707V17.441z"/>
	<path d="M94.574,20.004c-2.142,0.311-4.989,0.446-7.472,0.446c-1.995,0-3.748-0.097-4.697-0.252
		c-2.944-0.524-4.21-1.999-4.21-3.707c0-1.456,1.022-2.97,2.482-4.135l1.411,0.583c-1.362,1.106-2.142,2.368-2.142,3.435
		c0,1.146,0.949,2.155,3.042,2.543c0.828,0.136,2.239,0.214,3.895,0.214c2.36,0,5.232-0.155,7.569-0.524L94.574,20.004z
		 M83.646,10.222c1.266-0.796,2.994-1.728,4.308-2.251v-0.02c-1.85,0.175-6.084,0.233-8.785,0.233c0-0.369,0-1.009-0.024-1.358
		h1.314c3.115,0,9.491-0.039,12.558-0.621l0.195,1.417c-0.804,0.097-1.388,0.194-2.556,0.582c-1.363,0.446-3.724,1.495-5.622,2.717
		L83.646,10.222z M94.55,12.978c-0.705-0.854-2.215-2.019-3.261-2.64l0.803-0.602c1.168,0.68,2.58,1.805,3.334,2.62L94.55,12.978z
		 M97.105,11.134c-0.682-0.776-2.117-1.941-3.261-2.62l0.803-0.621c1.192,0.718,2.604,1.824,3.334,2.64L97.105,11.134z"/>
	<path d="M119.861,9.542c-0.073,0.213-0.341,0.349-0.706,0.349c-0.268,1.339-0.656,2.756-1.07,3.959
		c1.314,0.447,2.701,0.952,4.089,1.514l-0.779,1.301c-1.314-0.524-2.579-1.029-3.82-1.456c-1.169,2.795-2.848,4.833-5.428,6.191
		c-0.341-0.271-0.949-0.602-1.388-0.815c2.556-1.339,4.138-3.163,5.258-5.939c-2.459-0.776-4.697-1.319-6.499-1.436
		c-1.679,4.891-3.188,6.172-6.108,6.172s-3.48-1.863-3.48-3.047c0-3.009,3.919-4.406,8.275-4.426
		c0.511-1.553,0.973-3.455,1.313-5.473c-1.144,0.078-5.037,0.291-6.887,0.388c-0.098,0.136-0.293,0.233-0.512,0.271L101.9,5.524
		c2.093-0.058,6.62-0.291,8.08-0.407c0.268-0.02,0.365-0.117,0.535-0.214l1.509,0.718c-0.121,0.155-0.316,0.233-0.608,0.311
		c-0.389,2.155-0.974,4.387-1.509,6.056c1.874,0.117,4.113,0.641,6.547,1.378c0.414-1.165,0.779-2.659,1.047-4.231L119.861,9.542z
		 M107.814,13.133c-3.505,0.039-6.304,1.146-6.304,3.203c0,1.087,0.657,1.824,1.801,1.824
		C105.089,18.16,106.257,17.675,107.814,13.133z"/>
</g>
</svg>
